<svg xmlns="http://www.w3.org/2000/svg" viewBox="0 0 148 148" fill="none">
  <defs>
    <linearGradient id="fStroke" x1="16" y1="12" x2="148" y2="148" gradientUnits="userSpaceOnUse">
      <stop stop-color="#3B82F6"/>
      <stop offset="1" stop-color="#38BDF8"/>
    </linearGradient>
    <linearGradient id="fGlobe" x1="52" y1="40" x2="124" y2="108" gradientUnits="userSpaceOnUse">
      <stop stop-color="#1E3A8A"/>
      <stop offset="1" stop-color="#0E7490"/>
    </linearGradient>
    <linearGradient id="fLand" x1="52" y1="40" x2="124" y2="108" gradientUnits="userSpaceOnUse">
      <stop stop-color="#7DD3FC"/>
      <stop offset="1" stop-color="#22D3EE"/>
    </linearGradient>
    <clipPath id="fClip">
      <circle cx="86" cy="74" r="30"/>
    </clipPath>
  </defs>
  <rect width="148" height="148" rx="32" fill="#020617"/>
  <g transform="translate(4 6) scale(0.94)">
    <path d="M28 46c-1-16 10-30 28-30 12 0 22 8 26 20" stroke="url(#fStroke)" stroke-width="6.5" stroke-linecap="round" stroke-linejoin="round"/>
    <path d="M36 52h98l-10 58H50z" stroke="url(#fStroke)" stroke-width="6.5" stroke-linecap="round" stroke-linejoin="round"/>
    <circle cx="62" cy="128" r="9.5" stroke="url(#fStroke)" stroke-width="6.5"/>
    <circle cx="118" cy="128" r="9.5" stroke="url(#fStroke)" stroke-width="6.5"/>
    <circle cx="86" cy="74" r="30" fill="url(#fGlobe)" stroke="#38BDF8" stroke-width="1.6"/>
    <g clip-path="url(#fClip)" fill="url(#fLand)">
      <path d="M64 58c5-7 13-6 15 1 2 7-1 13-4 18-2 4-7 6-11 3-5-3-6-10-4-16 1-3 2-5 4-6z"/>
      <path d="M68 86c3-1 6 1 7 4 1 4-1 7-4 8-3 1-6-1-7-4-1-3 1-7 4-8z"/>
      <path d="M88 52c6-2 11 3 11 9 0 5-3 8-3 12 2 5 0 10-4 13-5 3-10 1-12-4-2-6 1-11 3-16 1-5 1-12 5-14z"/>
      <path d="M104 58c7 0 13 5 12 12-1 5-5 8-10 9-4 1-7-2-7-6 0-5 2-9 5-15z"/>
      <ellipse cx="108" cy="92" rx="7" ry="4.2"/>
    </g>
  </g>
</svg>
